# xmcd
#
# Track frame offsets: 
#        150
#        16539
#        29921
#        47520
#        63446
#        78421
#        95228
#        108096
#        131196
#        150487
#        165305
#        178941
#        201038
#        224408
#        255428
#        278612
#        302348
#        314950
#        337385
#
# Disc length: 4786 seconds
#
# Revision: 0
# Processed by: cddbd v1.5.2PL0 Copyright (c) Steve Scherf et al.
# Submitted via: ExactAudioCopy v1.1
#
DISCID=0e12b013
DTITLE=Various Artist - Akella Presents - vol.69 - Russia-Blues  CD2
DYEAR=2016
DGENRE=Blues
TTITLE0=Евгений Маргулис - Рок-н-ролл 
TTITLE1=Пять Пенсов - Подруга
TTITLE2=Генслер Блюз Бэнд - Утренний блюз
TTITLE3=Анатолий Жемаев - Игрок
TTITLE4=Лига Блюза - Нельзя-хочу
TTITLE5=Асанбай and Шевчук - Ключ
TTITLE6=Дикий Мед - Пешеход-Блюз
TTITLE7=Доктор Ник - Песня для Эла
TTITLE8=Андрей Козловский - Очки-тапочки
TTITLE9=Шанхай - Я еду по дороге
TTITLE10=Рэгтайм - Буги-Бой
TTITLE11=Константин Никольский - В моей Душе осадок зла
TTITLE12=Кроссроудз - Сколько можно терпеть
TTITLE13=Владимир Коровин - Ночной Блюз
TTITLE14=Чиж and Co - Дополнительный 38
TTITLE15=NikaDim - Опять 25
TTITLE16=АлисА - Камнепад
TTITLE17=Лига Блюза - Хозяева двора
TTITLE18=Машина Времени - Старые песни
EXTD=
EXTT0=
EXTT1=
EXTT2=
EXTT3=
EXTT4=
EXTT5=
EXTT6=
EXTT7=
EXTT8=
EXTT9=
EXTT10=
EXTT11=
EXTT12=
EXTT13=
EXTT14=
EXTT15=
EXTT16=
EXTT17=
EXTT18=
PLAYORDER=
